<?xml version="1.0" encoding="utf-8"?>
<!-- Generator: Adobe Illustrator 19.0.0, SVG Export Plug-In . SVG Version: 6.00 Build 0)  -->
<svg version="1.1" id="Layer_1" xmlns="http://www.w3.org/2000/svg" xmlns:xlink="http://www.w3.org/1999/xlink" x="0px" y="0px"
	 viewBox="0 0 50 50" style="enable-background:new 0 0 50 50;" xml:space="preserve">
<style type="text/css">
	.st0{fill:#6AC4A1;}
	.st1{fill:#D99A39;}
	.st2{fill:#F9AD53;}
	.st3{fill:#1E4852;}
	.st4{fill:#14353A;}
	.st5{fill:#F37772;}
	.st6{fill:#B399C2;}
	.st7{fill:#E1C56C;}
</style>
<g id="XMLID_53_">
	<circle id="XMLID_148_" class="st0" cx="25" cy="23.6" r="17.7"/>
	<g id="XMLID_139_">
		<path id="XMLID_145_" class="st1" d="M21.4,16.3c0,1.3,0.9,2.3,2.1,2.3c1.2,0,2.1-1,2.1-2.3c0-1.3-0.9-2.3-2.1-2.3
			C22.4,14,21.4,15.1,21.4,16.3z M22,16.3c0-0.9,0.7-1.7,1.6-1.7c0.9,0,1.6,0.8,1.6,1.7c0,0.9-0.7,1.7-1.6,1.7
			C22.7,18,22,17.3,22,16.3z"/>
		<path id="XMLID_144_" class="st1" d="M21.9,15.9c0-0.3-0.2-0.5-0.5-0.5h-0.7c-0.3,0-0.5,0.2-0.5,0.5v1c0,0.3,0.2,0.5,0.5,0.5h0.7
			c0.3,0,0.5-0.2,0.5-0.5V15.9z"/>
		<path id="XMLID_143_" class="st1" d="M20.8,16.4c0-0.2-0.2-0.3-0.3-0.3h-7.8c-0.2,0-0.3,0.2-0.3,0.3v0c0,0.2,0.2,0.3,0.3,0.3h7.8
			C20.6,16.7,20.8,16.6,20.8,16.4L20.8,16.4z"/>
		<path id="XMLID_142_" class="st1" d="M15.6,16c0-0.1-0.1-0.2-0.2-0.2h0c-0.1,0-0.2,0.1-0.2,0.2v0.8c0,0.1,0.1,0.2,0.2,0.2h0
			c0.1,0,0.2-0.1,0.2-0.2V16z"/>
		<g id="XMLID_140_">
			<path id="XMLID_141_" class="st1" d="M13.3,16.6h0.8c0.2,0,0.4,0.2,0.4,0.4v0.7c0,0.2-0.1,0.4-0.3,0.4v-0.7
				c0-0.1-0.1-0.2-0.2-0.2h0c-0.1,0-0.2,0.1-0.2,0.2v0.7h-0.3v-0.7c0-0.1-0.1-0.2-0.2-0.2h0c-0.1,0-0.2,0.1-0.2,0.2v0.7
				c-0.1-0.1-0.2-0.2-0.2-0.4V17C12.9,16.7,13.1,16.6,13.3,16.6z"/>
		</g>
	</g>
	<g id="XMLID_125_">
		<path id="XMLID_138_" class="st2" d="M22.1,21.3c0.1-0.4,0.5-0.7,0.9-0.6l2.3,0.3c0.4,0.1,0.7,0.4,0.7,0.9L24.3,34
			c-0.1,0.4-0.5,0.7-0.9,0.7l-2.3-0.3c-0.4-0.1-0.7-0.5-0.7-0.9L22.1,21.3z"/>
		<g id="XMLID_126_">
			<circle id="XMLID_135_" class="st3" cx="23.7" cy="21.9" r="0.5"/>
			<g id="XMLID_127_">
				<g id="XMLID_115_">
					<g id="XMLID_117_">
						<path id="XMLID_118_" class="st4" d="M23.7,21.5c0.1,0,0.2,0,0.3,0c-0.1-0.1-0.3-0.1-0.5-0.1c-0.3,0.1-0.4,0.4-0.3,0.7
							c0.1,0.2,0.2,0.3,0.4,0.3c-0.1-0.1-0.1-0.1-0.2-0.2C23.3,21.9,23.5,21.6,23.7,21.5z"/>
					</g>
				</g>
			</g>
		</g>
	</g>
	<g id="XMLID_109_">
		<path id="XMLID_122_" class="st5" d="M24.6,21.8c-0.1-0.4,0.2-0.8,0.6-0.9l2.3-0.6c0.4-0.1,0.8,0.1,0.9,0.5l3,11.9
			c0.1,0.4-0.1,0.8-0.6,1l-2.3,0.6c-0.4,0.1-0.8-0.1-1-0.6L24.6,21.8z"/>
		<g id="XMLID_110_">
			<circle id="XMLID_119_" class="st3" cx="26.3" cy="21.7" r="0.5"/>
			<g id="XMLID_111_">
				<g id="XMLID_100_">
					<g id="XMLID_101_">
						<path id="XMLID_102_" class="st4" d="M26.1,21.3c0.1-0.1,0.2-0.1,0.3-0.1c-0.2,0-0.4,0-0.5,0.1c-0.2,0.2-0.2,0.5,0,0.8
							c0.1,0.1,0.3,0.2,0.5,0.1c-0.1,0-0.2-0.1-0.3-0.1C25.9,21.9,25.9,21.5,26.1,21.3z"/>
					</g>
				</g>
			</g>
		</g>
	</g>
	<g id="XMLID_85_">
		<path id="XMLID_106_" class="st6" d="M27,21.3c-0.3-0.3-0.2-0.8,0.2-1.1l1.9-1.4c0.3-0.3,0.8-0.2,1.1,0.1l7.3,9.8
			c0.3,0.3,0.2,0.8-0.2,1.1l-1.9,1.4c-0.3,0.3-0.8,0.2-1.1-0.2L27,21.3z"/>
		<g id="XMLID_87_">
			<circle id="XMLID_103_" class="st3" cx="28.6" cy="20.6" r="0.5"/>
			<g id="XMLID_88_">
				<g id="XMLID_89_">
					<g id="XMLID_90_">
						<path id="XMLID_91_" class="st4" d="M28.3,20.3c0-0.1,0.1-0.2,0.2-0.2c-0.2,0-0.3,0.1-0.4,0.3c-0.1,0.3,0,0.6,0.3,0.7
							c0.2,0.1,0.4,0,0.5-0.1c-0.1,0-0.2,0-0.3,0C28.3,20.9,28.2,20.6,28.3,20.3z"/>
					</g>
				</g>
			</g>
		</g>
	</g>
	<path id="XMLID_84_" class="st7" d="M23.8,21.5c0,0-0.1,0-0.1-0.1c-0.1-0.1-0.2-0.5-0.2-1c0-0.3,0-0.6,0-0.9c0-1.1-0.1-1.8,0.2-1.9
		c0.1,0,0.2,0,0.2,0C24,17.8,24,17.9,24,18c0,0,0,0.1-0.1,0.1c0,0-0.1,0-0.1-0.1c0,0,0-0.1-0.1-0.2c0,0-0.1,0-0.1,0c0,0,0,0,0,0
		c-0.2,0.1-0.2,1-0.2,1.8c0,0.3,0,0.6,0,0.9c0,0.6,0.1,0.8,0.2,0.9c0,0,0.1,0,0.1,0h0C23.8,21.4,23.8,21.4,23.8,21.5
		C23.8,21.5,23.8,21.5,23.8,21.5C23.8,21.5,23.8,21.5,23.8,21.5z"/>
	<path id="XMLID_83_" class="st7" d="M24,20.8C24,20.8,24,20.8,24,20.8C24,20.8,24,20.8,24,20.8c0-0.8-0.1-2.2-0.1-2.2
		c0,0,0-0.1,0-0.1c0,0,0.1,0,0.1,0C24.1,18.7,24.2,20.1,24,20.8C24.1,20.8,24.1,20.8,24,20.8z"/>
	<path id="XMLID_78_" class="st7" d="M26.1,21.4c0,0-0.1,0-0.1,0c-0.2-0.1-0.4-0.4-0.7-0.9c-0.1-0.3-0.3-0.6-0.5-0.9
		c-0.6-1.1-0.9-1.8-0.7-2c0.1-0.1,0.1-0.1,0.2-0.1c0.1,0,0.2,0.2,0.2,0.2c0,0,0,0.1,0,0.1c0,0-0.1,0-0.1,0c0,0-0.1-0.1-0.1-0.1
		c0,0-0.1,0-0.1,0.1c0,0,0,0,0,0c-0.2,0.2,0.3,1.1,0.7,1.9c0.2,0.3,0.3,0.7,0.5,0.9c0.3,0.6,0.5,0.8,0.6,0.8c0,0,0.1,0,0.1,0l0,0
		C26.1,21.3,26.1,21.3,26.1,21.4C26.1,21.3,26.1,21.4,26.1,21.4C26.1,21.4,26.1,21.4,26.1,21.4z"/>
	<path id="XMLID_59_" class="st7" d="M26,20.6C26,20.6,26,20.6,26,20.6C26,20.6,26,20.6,26,20.6c-0.4-0.8-1.2-2.3-1.2-2.3
		c0,0,0-0.1,0-0.1c0,0,0.1,0,0.1,0C24.9,18.3,25.8,19.7,26,20.6C26.1,20.6,26.1,20.6,26,20.6z"/>
	<path id="XMLID_58_" class="st7" d="M28.4,20.4c0,0-0.1,0-0.1,0c-0.2,0-0.6-0.3-1.1-0.7c-0.3-0.2-0.6-0.5-1-0.8
		c-1.2-1-1.9-1.6-1.8-1.9c0-0.1,0.1-0.2,0.2-0.2c0.2,0,0.3,0.1,0.3,0.1c0,0,0,0.1,0,0.1c0,0-0.1,0-0.1,0c0,0-0.1-0.1-0.2-0.1
		c0,0-0.1,0-0.1,0.1c0,0,0,0,0,0c-0.1,0.2,0.9,1.1,1.7,1.7c0.4,0.3,0.7,0.6,1,0.8c0.6,0.6,0.9,0.7,1,0.7c0,0,0.1,0,0.1,0l0,0
		C28.3,20.2,28.4,20.2,28.4,20.4C28.4,20.3,28.4,20.3,28.4,20.4C28.4,20.4,28.4,20.4,28.4,20.4z"/>
	<path id="XMLID_57_" class="st7" d="M28,19.6C28,19.7,28,19.7,28,19.6c0,0-0.1,0-0.1,0c-0.7-0.8-2.4-2.1-2.5-2.1c0,0-0.1-0.1,0-0.1
		c0,0,0.1,0,0.1,0C25.6,17.5,27.2,18.8,28,19.6C28,19.6,28,19.6,28,19.6z"/>
</g>
</svg>
