<?xml version="1.0" encoding="utf-8"?>
<!-- Generator: Adobe Illustrator 19.0.0, SVG Export Plug-In . SVG Version: 6.00 Build 0)  -->
<svg version="1.1" id="Layer_1" xmlns="http://www.w3.org/2000/svg" xmlns:xlink="http://www.w3.org/1999/xlink" x="0px" y="0px"
	 viewBox="0 0 50 50" style="enable-background:new 0 0 50 50;" xml:space="preserve">
<style type="text/css">
	.st0{fill:#6AC4A1;}
	.st1{fill:#4D402F;}
	.st2{fill:#EFAF4F;}
</style>
<g id="XMLID_54_">
	<circle id="XMLID_374_" class="st0" cx="24.8" cy="22.6" r="17.7"/>
	<g id="XMLID_55_">
		<g id="XMLID_351_">
			<g id="XMLID_352_">
				<path id="XMLID_353_" class="st1" d="M17.6,20.3c-2.6,0-4.6,2.1-4.6,4.6c0,2.6,2.1,4.6,4.6,4.6c2.6,0,4.6-2.1,4.6-4.6
					C22.2,22.3,20.2,20.3,17.6,20.3z M17.6,29.4c-2.5,0-4.5-2-4.5-4.5c0-2.5,2-4.5,4.5-4.5c2.5,0,4.5,2,4.5,4.5
					C22.1,27.4,20.1,29.4,17.6,29.4z"/>
			</g>
		</g>
		<g id="XMLID_346_">
			<path id="XMLID_348_" class="st2" d="M17.6,20.4c-2.5,0-4.5,2-4.5,4.5c0,2.5,2,4.5,4.5,4.5c2.5,0,4.5-2,4.5-4.5
				C22.1,22.4,20.1,20.4,17.6,20.4z M17.6,29c-2.3,0-4.1-1.8-4.1-4.1c0-2.3,1.8-4.1,4.1-4.1c2.3,0,4.1,1.8,4.1,4.1
				C21.7,27.2,19.9,29,17.6,29z"/>
		</g>
		<g id="XMLID_341_">
			<g id="XMLID_342_">
				<path id="XMLID_343_" class="st2" d="M32.1,20.2c-2.6,0-4.6,2.1-4.6,4.6c0,2.6,2.1,4.6,4.6,4.6c2.6,0,4.6-2.1,4.6-4.6
					C36.7,22.3,34.7,20.2,32.1,20.2z M32.1,29.4c-2.5,0-4.5-2-4.5-4.5c0-2.5,2-4.5,4.5-4.5c2.5,0,4.5,2,4.5,4.5
					C36.6,27.4,34.6,29.4,32.1,29.4z"/>
			</g>
		</g>
		<g id="XMLID_337_">
			<path id="XMLID_340_" class="st1" d="M22.4,15.8c-0.3,0-2.3,0.2-2.6,0.1c-0.3-0.1-0.7-0.3-1-0.3c-0.4,0-0.4,0.1-0.4,0.2
				c0,0,0.8,0.5,0.9,0.6c0,0,0.4,0,0.8-0.1l0.5,1.5l0.4-0.1l-0.5-1.4c0.7-0.1,1.6-0.1,1.7-0.1c0.2,0,0.6-0.2,0.6-0.3
				C22.8,15.9,22.7,15.8,22.4,15.8z"/>
		</g>
		<g id="XMLID_335_">
			<polygon id="XMLID_336_" class="st1" points="29,18.6 28.8,18.1 21.1,18 21,17.8 20.6,17.9 23.1,25.6 23.6,25.6 23.6,25.2 
				21.3,18.6 			"/>
		</g>
		<g id="XMLID_330_">
			<path id="XMLID_331_" class="st1" d="M26.4,25.4c0-0.1,0-0.1-0.1-0.2c-0.1-0.1-0.2-0.1-0.3,0l-0.3,0.4l-2.4-0.1
				c0,0-0.1,0-0.1,0.1l-5-0.6l-0.1,0.3l5.1,0.6c0,0,0.1,0,0.1,0.1c0,0,1.9,0,2.1,0l-0.1,0.1c-0.1,0.1-0.1,0.2,0,0.3
				c0,0,0.1,0.1,0.2,0.1c0.1,0,0.1,0,0.2-0.1l0.8-0.9C26.4,25.5,26.4,25.5,26.4,25.4z M25.5,26.4c-0.1,0.1-0.1,0.1-0.2,0
				c-0.1-0.1-0.1-0.2,0-0.2l0.3-0.4c0,0,0,0,0,0c0,0.1,0.1,0.2,0.2,0.2c0,0,0.1,0,0.1,0L25.5,26.4z M26.3,25.5L26,25.9
				c0,0,0,0,0-0.1c0-0.1-0.1-0.2-0.2-0.2c0,0,0,0,0,0l0.3-0.4c0,0,0.1,0,0.1,0c0,0,0.1,0,0.1,0c0,0,0.1,0.1,0.1,0.1
				C26.4,25.5,26.4,25.5,26.3,25.5z"/>
		</g>
		<g id="XMLID_327_">
			<g id="XMLID_328_">
				<polygon id="XMLID_329_" class="st1" points="29.6,20.2 31.7,24.6 31.9,24.5 30,20 				"/>
			</g>
		</g>
		<g id="XMLID_196_">
			<path id="XMLID_197_" class="st1" d="M32.1,20.4c-2.5,0-4.5,2-4.5,4.5c0,2.5,2,4.5,4.5,4.5c2.5,0,4.5-2,4.5-4.5
				C36.6,22.4,34.6,20.4,32.1,20.4z M36.2,24.9l-3-0.2l0.2-0.2l2.7-0.1l0-0.1l-2.7,0.1l2.1-1.7C36,23.4,36.2,24.1,36.2,24.9
				C36.2,24.9,36.2,24.9,36.2,24.9z M31.7,25.6c0,0,0.1,0,0.1,0.1l0.1,0.3l-0.1,0.2L31.7,25.6z M31.8,26.6l-1.1,2.1l0,0
				c-0.2-0.1-0.3-0.1-0.5-0.2l1.6-2.2L31.8,26.6z M30.9,25.3l0.3-0.2L30.9,25.3L30.9,25.3z M31,25.4L31,25.4l-0.2,0.1L31,25.4
				L31,25.4z M31,25.4l0.3,0L31,25.4L31,25.4z M31.1,25.3l0.3-0.3c0,0,0,0,0,0.1c0,0.1,0,0.2,0.1,0.3L31.1,25.3z M32.1,25.7
				C32.2,25.7,32.2,25.7,32.1,25.7L32,26.1l0-0.2L32.1,25.7z M31.9,25.9l0-0.2c0.1,0,0.1,0,0.2,0L31.9,25.9z M32.1,25.3
				c-0.1,0-0.2-0.1-0.2-0.2c0-0.1,0.1-0.2,0.2-0.2c0.1,0,0.2,0.1,0.2,0.2C32.3,25.2,32.2,25.3,32.1,25.3z M32.1,24.4l0.1-0.2
				l0.1,0.2C32.2,24.4,32.1,24.4,32.1,24.4C32.1,24.4,32.1,24.4,32.1,24.4z M32.2,24.2l0.1-0.1l0.1,0.5c0,0-0.1,0-0.1,0L32.2,24.2z
				 M32.2,24.1l-0.1-0.2l0.1-0.2l0,0.2L32.2,24.1z M32.2,24.2L32,24.4c0,0-0.1,0-0.1,0l0,0l0,0l0.2-0.5L32.2,24.2z M31.8,24.4
				l-0.6-0.3l-1.3-2.7c0.4-0.3,0.9-0.5,1.4-0.6l0.8,3L31.8,24.4z M31.1,24.1L30.9,24l-1.4-2.3l0,0c0.1-0.1,0.2-0.2,0.4-0.3
				L31.1,24.1z M31,24.3l-2.7-0.9c0.1-0.1,0.1-0.3,0.2-0.4l2.4,1L31,24.3z M30.9,24.1l0.2,0.1l0.1,0.2l-0.1,0L30.9,24.1z M31.3,24.5
				l0.2,0.4c0,0,0,0,0,0l0,0l0,0l-0.3-0.5L31.3,24.5z M31.4,24.5l0.3,0.1l0-0.1L31.4,24.5l-0.1-0.2l0.6,0.2l0,0
				c-0.1,0.1-0.2,0.2-0.3,0.3L31.4,24.5z M31.9,26.1l0,0.2l-0.1,0.2l0-0.2L31.9,26.1z M32,26.3l0.7,2.6l0.1,0L32,26.3l0.3-0.6l0,0
				c0,0,0.1,0,0.1-0.1l0.5,0.2l1.2,2.6c-0.6,0.3-1.3,0.5-2,0.6l-0.3-2.4L32,26.3z M33.3,24.5l-0.2,0.2l-0.2,0l0.1-0.1L33.3,24.5z
				 M33.1,24.5l2.2-2.2c0.1,0.1,0.2,0.3,0.3,0.4l-2.2,1.8L33.1,24.5z M32.8,25.4l-0.1-0.1c0,0,0-0.1,0-0.1l0.2,0.3L32.8,25.4z
				 M33,25.6l0.2,0.3L33,25.8l-0.1-0.3L33,25.6z M32.7,24.8C32.7,24.8,32.7,24.8,32.7,24.8L32.7,24.8L32.7,24.8z M32.7,25.4
				L32.7,25.4C32.7,25.4,32.7,25.4,32.7,25.4L32.7,25.4z M32.7,25c0,0,0-0.1,0-0.1l0.1-0.1l0.2,0L32.7,25z M32.8,24.7l-0.2,0
				c0,0-0.1-0.1-0.1-0.1l0.4,0L32.8,24.7z M32.6,25.5l0.1,0l0.1,0.3l-0.4-0.2C32.5,25.6,32.6,25.5,32.6,25.5z M33,25.9l0.3,0.1
				l1.3,2.1c-0.1,0.1-0.3,0.2-0.4,0.3L33,25.9z M33.1,25.6l2.8,0.8c-0.1,0.2-0.1,0.3-0.2,0.5l-2.3-1L33.1,25.6z M33.1,25.5l-0.3-0.5
				l0.4-0.3l3.1,0.2c0,0.5-0.1,1-0.3,1.4L33.1,25.5z M35.3,22.3L33,24.5l-0.5,0l-0.1-0.6l1.7-2.7C34.5,21.5,34.9,21.9,35.3,22.3z
				 M34,21.2l-1.6,2.6l0-0.3l1.3-2.5l-0.1,0l-1.2,2.4l-0.5-2.7l-0.1,0l0.5,2.8l-0.1,0.2l-0.8-3c0.3,0,0.5-0.1,0.8-0.1
				C32.8,20.8,33.4,20.9,34,21.2z M29.4,21.8l1.4,2.2l-2.3-1C28.7,22.5,29,22.1,29.4,21.8z M28.2,23.5l2.8,0.9l0.3,0.5l-0.5,0.4
				L28,25.1c0-0.1,0-0.1,0-0.2C28,24.4,28.1,23.9,28.2,23.5z M28,25.6c0-0.1,0-0.3-0.1-0.4l2.8,0.3l-0.1,0.1L28,25.6z M30.6,25.5
				l-2,1.5c-0.3-0.4-0.4-0.9-0.5-1.4L30.6,25.5z M28.6,27.1l2.1-1.5l0.2,0l-1.9,1.9l0,0l2-2l0.6,0c0,0,0,0,0.1,0.1l0.1,0.7l-1.6,2.2
				C29.5,28.1,29,27.6,28.6,27.1z M30.7,28.7l1.1-2l0.3,2.3l0,0C31.6,29,31.1,28.9,30.7,28.7z M34.7,28.1l-1.3-2l2.2,0.9
				C35.4,27.4,35,27.8,34.7,28.1z"/>
		</g>
		<path id="XMLID_63_" class="st1" d="M23.5,24.3c-0.1,0-0.2,0-0.4,0c0,0-0.5,0-1.1,0c-0.2-1.5-1.1-2.7-2.3-3.4l1.1-2.1l-0.1-0.4
			l-1.2,2.3c-0.6-0.3-1.2-0.4-1.9-0.4c-2.5,0-4.5,2-4.5,4.5s2,4.5,4.5,4.5c1.8,0,3.3-1,4-2.5c0.6,0.2,1.1,0.3,1.1,0.3
			c0,0,0.3,0.1,0.6,0.1c0.1,0,0.1,0,0.2,0c0.3,0,0.6-0.1,0.8-0.2c0.1,0,0.1-0.1,0.2-0.1c0,0,0,0,0,0c0,0,0,0,0,0c0,0,0,0,0,0
			c0.3-0.3,0.5-0.6,0.5-1.1C25,25,24.4,24.4,23.5,24.3z M23.1,24.4c-0.4,0.1-0.8,0.4-1,0.8c0-0.1,0-0.2,0-0.3c0-0.2,0-0.4,0-0.5
			C22.6,24.4,23,24.4,23.1,24.4z M22,25.7c-0.1,0.4-0.2,0.8-0.4,1.1c-0.1,0-0.2,0-0.3-0.1c0-0.1,0.1-0.2,0.1-0.3l0,0l0-0.1
			c0.2-0.5,0.3-1,0.3-1.6c0,0,0,0,0,0l0,0l0-0.1l0,0c0-0.2,0-0.3,0-0.4c0.1,0,0.2,0,0.3,0c0,0.2,0,0.4,0,0.5c0,0.2,0,0.4,0,0.5
			C22,25.5,22,25.6,22,25.7z M13.5,24.9c0-0.5,0.1-0.9,0.2-1.3l0,0.1l2.7,0.7l0.3,0.5l-0.6,0.4l-2.7-0.2C13.5,25,13.5,25,13.5,24.9z
			 M21.7,24.9c0,0.6-0.1,1.1-0.3,1.6l-2.9-0.8l-0.3-0.4l0,0c0-0.1,0-0.1,0-0.2c0,0,0-0.1,0-0.1l0.4-0.3L21.7,24.9
			C21.7,24.9,21.7,24.9,21.7,24.9z M17.3,25.8L17.3,25.8L17.3,25.8C17.3,25.8,17.3,25.7,17.3,25.8c-0.2-0.1-0.3-0.2-0.4-0.4l0,0l0,0
			c-0.1-0.1-0.1-0.3,0-0.4c0.1-0.4,0.2-0.6,0.6-0.6c0,0,0.1,0,0.1,0l0,0l0,0h0l0,0.1c0,0,0,0,0,0c-0.3,0-0.6,0.3-0.6,0.6
			c0,0.3,0.3,0.6,0.6,0.6c0.1,0,0.3-0.1,0.4-0.1l0,0l0.4,0.1l0.2,0.4C18,26,17.6,25.9,17.3,25.8z M17.5,25.9L17.5,25.9l-0.1,0
			C17.4,25.9,17.4,25.9,17.5,25.9z M17.3,26.1L17.3,26.1L17.3,26.1L17.3,26.1z M17.3,26.1l-0.1,0.1L17.3,26.1L17.3,26.1z M16.5,25.3
			l-0.1,0l0.4-0.3L16.5,25.3z M16.5,25.4L16.5,25.4L16.5,25.4L16.5,25.4z M16.4,25.4L16.4,25.4l-0.2,0l0.1-0.1L16.4,25.4z
			 M16.8,25.1c0,0.1,0,0.2,0,0.3l-0.3,0L16.8,25.1z M16.8,25L16.8,25C16.8,25,16.8,25,16.8,25L16.8,25z M16.8,24.8l-0.3-0.5l0.2,0.1
			l0.1,0.3C16.9,24.7,16.9,24.8,16.8,24.8z M16.8,24.4l-0.1-0.2l0.5,0.2c0,0-0.1,0-0.1,0.1L16.8,24.4z M17,24.5c0,0-0.1,0.1-0.1,0.1
			l-0.1-0.2L17,24.5z M16.7,24.4l-0.2-0.1l-0.2-0.3l0.3,0.1L16.7,24.4z M17.7,24.3C17.7,24.3,17.7,24.3,17.7,24.3l-0.1-0.5l0.2-0.4
			l0.1,0.5L17.7,24.3z M17.8,25.1c0,0.1-0.1,0.2-0.2,0.2c-0.1,0-0.2-0.1-0.2-0.2c0-0.1,0.1-0.2,0.2-0.2C17.7,24.9,17.8,25,17.8,25.1
			z M17.6,24.3c-0.1,0-0.1,0-0.1,0c-0.1,0-0.1,0-0.2,0.1l0.2-0.4L17.6,24.3z M18.1,25.3l0.1,0.3L18,25.5
			C18,25.5,18.1,25.4,18.1,25.3z M18,24.7l0.1,0L18,24.7C18.1,24.7,18.1,24.7,18,24.7z M18.1,24.8l0.1-0.1l0.2,0l-0.3,0.2
			C18.2,24.9,18.1,24.8,18.1,24.8z M18.3,24.6l0.3-0.3c0.1,0,0.2,0,0.3,0l-0.4,0.3L18.3,24.6z M18.2,24.6l-0.3,0
			c0,0-0.1-0.1-0.1-0.1l0.1-0.1c0.2,0,0.4,0,0.6,0L18.2,24.6z M18.3,25.6L18.3,25.6L18.3,25.6L18.3,25.6z M18.4,25.7L18.4,25.7
			l0.3,0.5c0,0-0.1,0-0.1,0L18.4,25.7z M18.7,24.6l0.4-0.3c0,0,0.1,0,0.1,0c0.8,0,1.7,0,2.5,0c0,0.1,0,0.3,0,0.4L18.7,24.6z
			 M19.1,24.3l2-1.5c0.3,0.4,0.5,1,0.5,1.5C20.9,24.3,19.9,24.3,19.1,24.3z M19,24.3c-0.1,0-0.2,0-0.3,0l2.1-1.9
			c0.1,0.1,0.2,0.3,0.3,0.4L19,24.3z M18.6,24.3c-0.2,0-0.5,0-0.6,0l0,0l1.6-3c0.5,0.3,0.9,0.6,1.2,1L18.6,24.3z M17.9,23.9
			l-0.1-0.5l1.2-2.3c0.1,0,0.2,0.1,0.3,0.1L17.9,23.9z M17.8,23.3l-0.5-2.5c0.1,0,0.2,0,0.3,0c0.5,0,0.9,0.1,1.4,0.2L17.8,23.3z
			 M17.2,20.8l0.5,2.5l-0.2,0.4l-0.7-2.8C16.9,20.9,17.1,20.9,17.2,20.8z M16.7,20.9l0.8,2.9l-0.3,0.5l-0.5-0.2l-1.3-2.6
			C15.8,21.2,16.2,21,16.7,20.9z M15.3,21.5l1.3,2.6L16.3,24l-1.4-2.1C15,21.7,15.2,21.6,15.3,21.5z M14.8,21.9l1.3,2L14,23.1
			C14.2,22.6,14.5,22.2,14.8,21.9z M16.2,24l0.2,0.3l-2.7-0.7c0.1-0.2,0.1-0.3,0.2-0.5l0,0L16.2,24z M16.2,25.4L16.2,25.4l-2.6,0.3
			l0,0.1c0-0.2-0.1-0.4-0.1-0.6L16.2,25.4z M16,25.5L14.1,27c-0.2-0.4-0.4-0.8-0.5-1.2L16,25.5z M14.1,27l2-1.5l0.2,0l-1.9,2
			C14.3,27.3,14.2,27.2,14.1,27L14.1,27z M16.4,25.5l0.4,0l0,0l0,0c0.1,0.1,0.2,0.2,0.4,0.4l0,0.1L17,26.5l-1.4,2
			c-0.4-0.2-0.8-0.6-1.1-1L16.4,25.5z M16.9,26.8l-0.8,1.9l0.1,0l0.9-2.2l0.2-0.3l0.3,2.7c-0.7,0-1.3-0.2-1.9-0.5L16.9,26.8z
			 M17.6,29l-0.3-2.8l0,0l0.8,2.8C18,29,17.8,29,17.6,29z M18.2,28.9l-0.8-2.9l0.1-0.2c0.3,0.1,0.6,0.2,1,0.3l1.1,2.2
			C19.2,28.7,18.7,28.9,18.2,28.9z M19.7,28.4l-1-2.2c0.1,0,0.1,0,0.2,0l1.3,1.9C19.9,28.2,19.8,28.3,19.7,28.4z M20.1,28.1
			l-1.2-1.8c0.2,0,0.3,0.1,0.5,0.1l0.3,0.1c0.5,0.1,1.1,0.3,1.5,0.4C20.9,27.3,20.6,27.8,20.1,28.1z M19.7,26.4l-0.3-0.1
			c-0.2,0-0.4-0.1-0.6-0.1l-0.3-0.5l2.8,0.8c0,0.1-0.1,0.2-0.1,0.3C20.7,26.7,20.2,26.5,19.7,26.4z M22,24.3c-0.1,0-0.2,0-0.3,0
			c-0.1-0.6-0.3-1.1-0.5-1.5l0,0l0,0c-0.4-0.6-0.9-1.1-1.5-1.5l0.1-0.3C20.9,21.7,21.8,22.9,22,24.3z M17.6,29.4
			c-2.5,0-4.5-2-4.5-4.5c0-2.5,2-4.5,4.5-4.5c0.7,0,1.3,0.2,1.9,0.4l-0.1,0.3c-0.5-0.2-1.1-0.4-1.7-0.4c-2.3,0-4.1,1.9-4.1,4.1
			s1.9,4.1,4.1,4.1c1.6,0,3-0.9,3.7-2.2c0.1,0,0.2,0.1,0.3,0.1C20.8,28.4,19.3,29.4,17.6,29.4z M22.7,27.1c0,0-0.4-0.1-1.1-0.3
			c0.1-0.3,0.2-0.6,0.3-0.9c0.1,0.5,0.4,1,0.9,1.2C22.8,27.2,22.7,27.1,22.7,27.1z M23.4,27.2C23.4,27.2,23.3,27.2,23.4,27.2
			c-0.4,0-0.7-0.2-1-0.4l1-0.9l0.7,1.2C23.9,27.2,23.7,27.2,23.4,27.2z M24.5,26.8c-0.1,0.1-0.2,0.1-0.3,0.2c0,0,0,0-0.1,0l-0.7-1.2
			l0.2-1.4l-0.1,0l-0.2,1.4l-1.2-0.6l0,0.1l1.2,0.6l-1,0.9c-0.2-0.2-0.4-0.6-0.4-0.9c0,0,0,0,0-0.1c0-0.1,0-0.2,0-0.3
			c0.2-0.6,0.7-1.1,1.4-1.1c0,0,0,0,0,0c0.7,0.1,1,0.4,1.1,0.6c0,0,0,0,0,0.1C24.9,25.3,25.2,26.2,24.5,26.8z"/>
		<g id="XMLID_58_">
			<g id="XMLID_61_">
				<path id="XMLID_62_" class="st1" d="M32.9,17.4c-0.1-0.3-0.3-0.7-0.9-0.7c-0.7,0-3.8,0-3.8,0l0.5,1.3l0.5-0.1L29,17.2l1.1,0
					l0-0.1l2,0c0,0,0.5,0.3,0.3,0.7c-0.2,0.5-0.4,0.6-0.7,0.9c-0.3,0.3-0.7,0.6-0.7,0.6l0.3,0.3c0,0,0.8-0.6,1.2-1.1
					C32.9,18.1,33,17.7,32.9,17.4z"/>
			</g>
			<g id="XMLID_59_">
				<polygon id="XMLID_60_" class="st1" points="30,19.9 29.2,17.9 28.7,18 29.4,19.6 23.5,25.2 23.5,25.6 23.8,25.6 29.5,20.2 
					29.5,20.3 30.1,20.1 30,19.9 				"/>
			</g>
		</g>
		<g id="XMLID_56_">
			<g id="XMLID_57_">
				<path id="XMLID_70_" class="st2" d="M30.1,16.7v0.4c0,0,1.9,0,2.1,0c0.2,0,0.4,0.2,0.3,0.6c0,0.2-0.1,0.4-0.4,0.7
					c-0.3,0.4-0.8,0.8-1,0.9l0.3,0.3c0,0,0.5-0.4,1-0.9c0.3-0.3,0.5-0.6,0.6-1c0.1-0.7-0.4-1.1-0.7-1.1
					C31.8,16.7,30.1,16.7,30.1,16.7z"/>
			</g>
		</g>
	</g>
</g>
</svg>
