<?xml version="1.0" encoding="utf-8"?>
<!-- Generator: Adobe Illustrator 19.0.0, SVG Export Plug-In . SVG Version: 6.00 Build 0)  -->
<svg version="1.1" id="Layer_1" xmlns="http://www.w3.org/2000/svg" xmlns:xlink="http://www.w3.org/1999/xlink" x="0px" y="0px"
	 viewBox="0 0 50 50" style="enable-background:new 0 0 50 50;" xml:space="preserve">
<style type="text/css">
	.st0{display:none;}
	.st1{display:inline;fill:#6E6F71;}
	.st2{display:inline;}
	.st3{fill:#6E6F71;}
	.st4{display:none;fill-rule:evenodd;clip-rule:evenodd;fill:#6E6F71;}
</style>
<g id="XMLID_308_" class="st0">
	<path id="XMLID_414_" class="st1" d="M15.3,24.2v11.3c0,0.4,0.3,0.7,0.5,0.8c0.2,0.1,0.5,0.2,0.8,0.2h5.2c0.2,0,0.4-0.1,0.5-0.2
		c0.1-0.1,0.2-0.3,0.2-0.5v-5.5h5.1v5.5c0,0.2,0.1,0.4,0.2,0.5c0.1,0.1,0.3,0.2,0.5,0.2h5.2c0.3,0,0.5-0.1,0.8-0.2
		c0.2-0.1,0.5-0.4,0.5-0.8V24.2L25,15.4L15.3,24.2z"/>
	<path id="XMLID_410_" class="st1" d="M38.5,21.1L26.2,9.9c-0.7-0.6-1.8-0.6-2.5,0L11.5,21.1c-0.7,0.7-0.8,1.8-0.1,2.6v0
		c0.4,0.4,0.8,0.6,1.3,0.6c0.4,0,0.9-0.2,1.2-0.5l11-10l11,10c0.7,0.7,1.9,0.6,2.6-0.1C39.3,22.9,39.2,21.7,38.5,21.1L38.5,21.1z"/>
</g>
<g id="XMLID_417_" class="st0">
	<g id="XMLID_420_" class="st2">
		<g id="XMLID_423_">
			<g id="XMLID_676_">
				<path id="XMLID_689_" class="st3" d="M29.7,10.3c-2.5-2.5-6.1-3.5-9.5-2.7c-2.6,0.6-4.9,2.3-6.3,4.5c-0.7,1.1-1.2,2.4-1.4,3.8
					c-0.2,1.5-0.1,2.9,0.2,4.4c0.6,2.7,1.8,5.2,3.2,7.6c1.2,2.1,2.6,4,4.1,5.9c0.5,0.6,0.9,1.1,1.4,1.7c0.3,0.3,0.6,0.7,0.9,0.8
					c0.1,0,0.1,0.1,0.2,0.1c0.1,0,0.2,0,0.3-0.1c0.2-0.1,0.4-0.2,0.5-0.4c0.1-0.1,0.1-0.2,0.2-0.2c0.4-0.5,0.8-0.9,1.2-1.4
					c1.4-1.8,2.8-3.6,4-5.6c1.5-2.4,2.7-4.9,3.5-7.6c0.4-1.5,0.6-3,0.5-4.5c-0.1-1.6-0.7-3.1-1.5-4.5C30.7,11.5,30.2,10.9,29.7,10.3
					 M28.6,19.8c-1.1,2.9-4.2,4.7-7.2,4.2c-2.3-0.4-4.3-2.1-5.1-4.3c-0.8-2.3-0.2-4.9,1.5-6.6c1.8-1.9,4.6-2.5,7-1.6
					c2.9,1.1,4.7,4.2,4.2,7.3C28.8,19,28.7,19.4,28.6,19.8C28.6,19.9,28.9,19.1,28.6,19.8z"/>
				<path id="XMLID_687_" class="st3" d="M32.6,17.5c0,2.6-0.9,5.2-2,7.5c-1,2.2-2.3,4.3-3.7,6.3c-1,1.4-2,2.7-3.1,4
					c-0.2,0.2-0.4,0.4-0.6,0.6c-0.1,0.1-0.3,0.3-0.5,0.4c-0.1,0-0.3,0.1-0.3,0.1c0,0,0-0.2,0-0.2c0-1.3,0-2.5,0-3.8
					c0-1.8,0-3.5,0-5.3c0-0.7,0-1.3,0-2c0-0.2,0-0.4,0-0.6c0-0.1,0-0.3,0-0.3c0-0.1,0.4,0,0.5,0c0.4,0,0.8-0.1,1.2-0.2
					c0.8-0.2,1.5-0.6,2.1-1c1.3-1,2.2-2.4,2.6-4c0.3-1.6,0-3.4-0.9-4.8c-0.8-1.2-1.9-2.2-3.3-2.7c-0.4-0.1-0.8-0.2-1.1-0.3
					C23.4,11,23.2,11,23,11c-0.1,0-0.2,0-0.3,0c0,0-0.2,0-0.3,0c0,0,0-0.1,0-0.2c0-0.1,0-0.3,0-0.4c0-0.8,0-1.7,0-2.5
					c0-0.2,0-0.4,0-0.5c2.3,0,4.5,0.8,6.3,2.2c1.5,1.2,2.7,2.8,3.3,4.7C32.5,15.3,32.6,16.4,32.6,17.5z"/>
			</g>
			<g id="XMLID_427_">
				<path id="XMLID_434_" class="st3" d="M15.6,17.5c0,2.9,1.8,5.5,4.5,6.5c2.7,1,5.8,0.1,7.7-2.1c1.8-2.2,2.1-5.5,0.6-7.9
					c-1.5-2.5-4.5-3.8-7.3-3.2c-2.8,0.6-5,2.9-5.4,5.7C15.6,16.8,15.6,17.2,15.6,17.5z M24.7,12.6c2.3,1,3.6,3.6,3,6.1
					c-0.4,1.9-1.9,3.4-3.8,4c-1.9,0.5-4,0-5.4-1.5c-1.5-1.6-1.9-3.9-1-5.9c1.1-2.3,3.7-3.6,6.2-3C24.1,12.4,24.4,12.5,24.7,12.6
					C24.8,12.7,24.6,12.6,24.7,12.6z"/>
			</g>
		</g>
	</g>
	<path id="XMLID_418_" class="st1" d="M22.5,15c-1.1,0-2,0.7-2.4,1.7c-0.4,1,0,2.1,0.8,2.8c0.8,0.7,2,0.8,2.9,0.2
		c0.9-0.5,1.4-1.6,1.2-2.7C24.7,15.9,23.7,15,22.5,15z"/>
</g>
<g id="XMLID_736_">
	<circle id="XMLID_728_" class="st3" cx="17.5" cy="38.4" r="3.1"/>
	<circle id="XMLID_706_" class="st3" cx="31.1" cy="38.4" r="3.1"/>
	<path id="XMLID_415_" class="st3" d="M39,18.3c-4,0-19.2,0-19.2,0s-1.1,0.3-1.1,1.5c0,1.2,1.1,1.6,1.1,1.6H37l-1,3.3
		c-4.7,0-16.9,0-16.9,0s-1.1,0.2-1.1,1.4c0,1.2,1.1,1.5,1.1,1.5h16h0l-0.9,3.1H16.9l-1.2-9.2l-0.4-3.1c0,0-0.3-2.9-0.5-4.1
		c-0.2-1.2-3.2-2.7-9.6-5.7c-1.5-0.6-2.8,2.1,0,3.6l5,2.4c0,0,1.2,0.7,1.3,1.6c0.1,0.9,2.1,16.1,2.1,16.1s0.1,2.1,2,2.1
		c1.9,0,17.6,0,19.3,0c1.6,0,1.9-1.7,1.9-1.7l3.8-11.3C40.7,21.3,41.8,18.3,39,18.3z"/>
</g>
<path id="XMLID_1631_" class="st4" d="M199.1,22.4c-2.2,1.2-5,0.4-6.2-1.8c-1.2-2.2-0.4-5,1.8-6.2c2.2-1.2,5-0.4,6.2,1.8
	C202.1,18.4,201.3,21.2,199.1,22.4L199.1,22.4z M204.3,11L204.3,11c-0.6-0.6-1.2-1.1-1.9-1.5l0.3-1.8c0.1-0.6-0.3-1.2-0.9-1.4
	l-2.7-0.8c-0.6-0.2-1.2,0.1-1.4,0.7l-0.7,1.7c-0.8,0-1.7,0-2.5,0.2l-1-1.5c-0.3-0.5-1-0.6-1.5-0.3l-2.4,1.3C189,8,188.8,8.6,189,9.1
	l0.7,1.7c-0.6,0.6-1.2,1.3-1.7,2.1l-1.7-0.3c-0.6-0.1-1.2,0.3-1.3,0.8l-0.8,2.7c-0.2,0.6,0.1,1.2,0.7,1.4l1.6,0.7
	c0,0.9,0.1,1.8,0.3,2.7l-1.4,0.9c-0.5,0.4-0.6,1-0.3,1.5l1.3,2.4c0.3,0.5,1,0.7,1.5,0.5l1.5-0.6c0.6,0.7,1.3,1.2,2,1.7l-0.2,1.6
	c-0.1,0.6,0.2,1.2,0.8,1.3l2.6,0.8c0.6,0.2,1.2-0.2,1.4-0.7l0.6-1.5c0.9,0.1,1.8-0.1,2.7-0.3l0.9,1.3c0.3,0.5,1,0.6,1.5,0.3l2.4-1.3
	c0.5-0.3,0.7-1,0.5-1.5l-0.6-1.5c0.7-0.7,1.3-1.4,1.8-2.2l1.6,0.3c0.6,0.1,1.2-0.2,1.4-0.8l0.7-2.7c0.2-0.6-0.1-1.2-0.7-1.4
	l-1.6-0.7c0-0.9-0.1-1.8-0.3-2.6l1.4-1c0.5-0.4,0.6-1,0.3-1.5l-1.4-2.4c-0.3-0.5-0.9-0.8-1.5-0.5L204.3,11z"/>
</svg>
