<?xml version="1.0" encoding="utf-8"?>
<!-- Generator: Adobe Illustrator 19.0.0, SVG Export Plug-In . SVG Version: 6.00 Build 0)  -->
<svg version="1.1" id="Layer_1" xmlns="http://www.w3.org/2000/svg" xmlns:xlink="http://www.w3.org/1999/xlink" x="0px" y="0px"
	 viewBox="0 0 50 50" style="enable-background:new 0 0 50 50;" xml:space="preserve">
<style type="text/css">
	.st0{fill:#6AC4A1;}
	.st1{fill:#565F6A;}
	.st2{fill:#D99A39;}
	.st3{fill:#EFAF4F;}
</style>
<g id="XMLID_339_">
	<circle id="XMLID_338_" class="st0" cx="25" cy="24.1" r="17.7"/>
	<g id="XMLID_222_">
		<path id="XMLID_358_" class="st1" d="M34.6,24c0.1,0.1,0.2,0.3,0.2,0.5c0,0.4-0.3,0.7-0.7,0.7h-0.2l0.2,3c0,0.4-0.1,0.7-0.3,1v4.4
			c0,0.6-0.5,1-1,1H17.3c-0.6,0-1-0.5-1-1v-4.4c-0.2-0.3-0.4-0.6-0.3-1l0.2-3h-0.2c-0.2,0-0.4-0.1-0.5-0.2c-0.1-0.1-0.2-0.3-0.2-0.5
			c0-0.3,0.2-0.6,0.5-0.7v-7.3c0-1.7,1.4-3.1,3.1-3.1h12.5c1.7,0,3.1,1.4,3.1,3.1v7.3C34.4,23.8,34.5,23.9,34.6,24z M34.3,24.5
			c0-0.1,0-0.1-0.1-0.2c0,0-0.1-0.1-0.2-0.1h-0.3l0,0.4h0.3C34.2,24.7,34.3,24.6,34.3,24.5z M33.9,23.8v-7.3c0-1.4-1.2-2.6-2.6-2.6
			H18.7c-1.4,0-2.6,1.2-2.6,2.6v7.3h0.1l0-0.3c0-0.5,0.5-0.9,1-0.9h15.6c0.5,0,0.9,0.4,1,0.9L33.9,23.8L33.9,23.8z M33.4,28.9
			c0.2-0.2,0.2-0.4,0.2-0.6l-0.3-4.8c0-0.2-0.2-0.4-0.5-0.4H17.2c-0.2,0-0.5,0.2-0.5,0.4l-0.3,4.8c0,0.2,0.1,0.5,0.2,0.6
			c0.2,0.2,0.4,0.3,0.6,0.3H19v-1.6c0-0.1,0-0.1,0.1-0.2l0.4-0.4c0,0,0.1-0.1,0.2-0.1h0.8c0.1,0,0.1,0,0.2,0.1l0.4,0.4
			c0,0,0.1,0.1,0.1,0.2v1.6h8.1v-1.6c0-0.1,0-0.1,0.1-0.2l0.4-0.4c0,0,0.1-0.1,0.2-0.1h0.8c0.1,0,0.1,0,0.2,0.1l0.4,0.4
			c0,0,0.1,0.1,0.1,0.2v1.6h1.7C33,29.2,33.2,29.1,33.4,28.9z M33.2,33.7v-4.1c-0.2,0.1-0.3,0.1-0.5,0.1H31v0.4h0.2
			c0.1,0,0.2,0.1,0.2,0.2v1.2c0,0.1-0.1,0.2-0.2,0.2H31v0.7c0,0.1,0,0.1-0.1,0.2l-0.7,0.6c0,0-0.1,0.1-0.2,0.1c-0.1,0-0.1,0-0.2-0.1
			l-0.7-0.6c-0.1,0-0.1-0.1-0.1-0.2v-0.7h-0.2c-0.1,0-0.2-0.1-0.2-0.2v-1.2c0-0.1,0.1-0.2,0.2-0.2h0.2v-0.4h-3.8v4.5h7.5
			C33,34.2,33.2,34,33.2,33.7z M31,31.3v-0.7h-1.9v0.7H31z M30.5,32.4v-0.6h-1v0.6l0.5,0.4L30.5,32.4z M30.5,30.1v-2.4l-0.2-0.2
			h-0.6l-0.2,0.2v2.4H30.5z M24.8,34.2v-4.5h-3.8v0.4h0.2c0.1,0,0.2,0.1,0.2,0.2v1.2c0,0.1-0.1,0.2-0.2,0.2h-0.2v0.7
			c0,0.1,0,0.1-0.1,0.2l-0.7,0.6c0,0-0.1,0.1-0.2,0.1c-0.1,0-0.1,0-0.2-0.1l-0.7-0.6c-0.1,0-0.1-0.1-0.1-0.2v-0.7h-0.2
			c-0.1,0-0.2-0.1-0.2-0.2v-1.2c0-0.1,0.1-0.2,0.2-0.2H19v-0.4h-1.7c-0.2,0-0.3,0-0.5-0.1v4.1c0,0.3,0.2,0.5,0.5,0.5H24.8z
			 M20.9,31.3v-0.7H19v0.7H20.9z M20.4,32.4v-0.6h-1v0.6l0.5,0.4L20.4,32.4z M20.4,30.1v-2.4l-0.2-0.2h-0.6l-0.2,0.2v2.4H20.4z
			 M16.2,24.7l0-0.4h-0.3c-0.1,0-0.2,0.1-0.2,0.2c0,0.1,0,0.1,0.1,0.2c0,0,0.1,0.1,0.2,0.1H16.2z"/>
		<path id="XMLID_254_" class="st2" d="M34.3,24.3c0,0,0.1,0.1,0.1,0.2c0,0.1-0.1,0.2-0.2,0.2h-0.3l0-0.4h0.3
			C34.2,24.3,34.2,24.3,34.3,24.3z"/>
		<path id="XMLID_354_" class="st3" d="M33.6,28.3c0,0.2-0.1,0.5-0.2,0.6c-0.2,0.2-0.4,0.3-0.6,0.3H31v-1.6c0-0.1,0-0.1-0.1-0.2
			l-0.4-0.4c0,0-0.1-0.1-0.2-0.1h-0.8c-0.1,0-0.1,0-0.2,0.1l-0.4,0.4c0,0-0.1,0.1-0.1,0.2v1.6h-8.1v-1.6c0-0.1,0-0.1-0.1-0.2
			l-0.4-0.4c0,0-0.1-0.1-0.2-0.1h-0.8c-0.1,0-0.1,0-0.2,0.1l-0.4,0.4c0,0-0.1,0.1-0.1,0.2v1.6h-1.7c-0.2,0-0.5-0.1-0.6-0.3
			c-0.2-0.2-0.2-0.4-0.2-0.6l0.3-4.8c0-0.2,0.2-0.4,0.5-0.4h15.6c0.2,0,0.5,0.2,0.5,0.4L33.6,28.3z M26.6,25.9v-1.2
			c0-0.1-0.1-0.2-0.2-0.2h-2.7c-0.1,0-0.2,0.1-0.2,0.2v1.2c0,0.1,0.1,0.2,0.2,0.2h2.7C26.5,26.1,26.6,26,26.6,25.9z"/>
		<path id="XMLID_93_" class="st2" d="M33.2,29.6v4.1c0,0.3-0.2,0.5-0.5,0.5h-7.5v-4.5h3.8v0.4h-0.2c-0.1,0-0.2,0.1-0.2,0.2v1.2
			c0,0.1,0.1,0.2,0.2,0.2h0.2v0.7c0,0.1,0,0.1,0.1,0.2l0.7,0.6c0,0,0.1,0.1,0.2,0.1c0.1,0,0.1,0,0.2-0.1l0.7-0.6
			c0.1,0,0.1-0.1,0.1-0.2v-0.7h0.2c0.1,0,0.2-0.1,0.2-0.2v-1.2c0-0.1-0.1-0.2-0.2-0.2H31v-0.4h1.7C32.9,29.7,33.1,29.6,33.2,29.6z"
			/>
		<rect id="XMLID_81_" x="29.1" y="30.6" class="st2" width="1.9" height="0.7"/>
		<polygon id="XMLID_96_" class="st2" points="30.5,31.8 30.5,32.4 30,32.8 29.6,32.4 29.6,31.8 		"/>
		<polygon id="XMLID_92_" class="st2" points="30.5,27.7 30.5,30.1 29.6,30.1 29.6,27.7 29.8,27.5 30.3,27.5 		"/>
		<path id="XMLID_347_" class="st1" d="M26.6,24.7v1.2c0,0.1-0.1,0.2-0.2,0.2h-2.7c-0.1,0-0.2-0.1-0.2-0.2v-1.2
			c0-0.1,0.1-0.2,0.2-0.2h2.7C26.5,24.4,26.6,24.6,26.6,24.7z M26.1,25.6v-0.7h-2.2v0.7H26.1z"/>
		<rect id="XMLID_61_" x="23.9" y="24.9" class="st2" width="2.2" height="0.7"/>
		<path id="XMLID_60_" class="st2" d="M24.8,29.7v4.5h-7.5c-0.3,0-0.5-0.2-0.5-0.5v-4.1c0.2,0.1,0.3,0.1,0.5,0.1H19v0.4h-0.2
			c-0.1,0-0.2,0.1-0.2,0.2v1.2c0,0.1,0.1,0.2,0.2,0.2H19v0.7c0,0.1,0,0.1,0.1,0.2l0.7,0.6c0,0,0.1,0.1,0.2,0.1c0.1,0,0.1,0,0.2-0.1
			l0.7-0.6c0.1,0,0.1-0.1,0.1-0.2v-0.7h0.2c0.1,0,0.2-0.1,0.2-0.2v-1.2c0-0.1-0.1-0.2-0.2-0.2h-0.2v-0.4H24.8z"/>
		<rect id="XMLID_56_" x="19" y="30.6" class="st2" width="1.9" height="0.7"/>
		<polygon id="XMLID_63_" class="st2" points="20.4,31.8 20.4,32.4 20,32.8 19.5,32.4 19.5,31.8 		"/>
		<polygon id="XMLID_55_" class="st2" points="20.4,27.7 20.4,30.1 19.5,30.1 19.5,27.7 19.7,27.5 20.2,27.5 		"/>
		<path id="XMLID_54_" class="st2" d="M16.2,24.3l0,0.4h-0.3c-0.1,0-0.1,0-0.2-0.1c0,0-0.1-0.1-0.1-0.2c0-0.1,0.1-0.2,0.2-0.2H16.2z
			"/>
	</g>
</g>
</svg>
