<?xml version="1.0" encoding="utf-8"?>
<!-- Generator: Adobe Illustrator 19.0.0, SVG Export Plug-In . SVG Version: 6.00 Build 0)  -->
<svg version="1.1" id="Layer_1" xmlns="http://www.w3.org/2000/svg" xmlns:xlink="http://www.w3.org/1999/xlink" x="0px" y="0px"
	 viewBox="0 0 50 50" style="enable-background:new 0 0 50 50;" xml:space="preserve">
<style type="text/css">
	.st0{fill:#6AC4A1;}
	.st1{fill:#D99A39;}
	.st2{fill:#34588B;}
	.st3{fill:#F0534F;}
	.st4{fill:#92BA65;}
	.st5{fill:#FFFFFF;}
	.st6{fill:#6E6F71;}
</style>
<g id="XMLID_260_">
	<circle id="XMLID_53_" class="st0" cx="25" cy="23" r="17.7"/>
	<path id="XMLID_259_" class="st1" d="M26.4,35.3h-2.7c-1.7,0-3-1.3-3-3V12.7c0-1.7,1.3-3,3-3h2.7c1.7,0,3,1.3,3,3v19.6
		C29.4,34,28,35.3,26.4,35.3z"/>
	<circle id="XMLID_258_" class="st2" cx="25" cy="19.3" r="1"/>
	<circle id="XMLID_257_" class="st3" cx="25" cy="29.4" r="1"/>
	<circle id="XMLID_256_" class="st4" cx="25" cy="32.1" r="1"/>
	<g id="XMLID_265_">
		<circle id="XMLID_255_" class="st5" cx="25" cy="22.1" r="0.7"/>
		<circle id="XMLID_253_" class="st5" cx="22.9" cy="22.1" r="0.7"/>
		<circle id="XMLID_251_" class="st5" cx="27.1" cy="22.1" r="0.7"/>
		<circle id="XMLID_248_" class="st5" cx="25" cy="24.3" r="0.7"/>
		<circle id="XMLID_247_" class="st5" cx="22.9" cy="24.3" r="0.7"/>
		<circle id="XMLID_246_" class="st5" cx="27.1" cy="24.3" r="0.7"/>
		<circle id="XMLID_245_" class="st5" cx="25" cy="26.4" r="0.7"/>
		<circle id="XMLID_244_" class="st5" cx="22.9" cy="26.4" r="0.7"/>
		<circle id="XMLID_243_" class="st5" cx="27.1" cy="26.4" r="0.7"/>
	</g>
	<path id="XMLID_241_" class="st6" d="M27.4,13.4h-1.6v-1.6c0-0.4-0.3-0.8-0.8-0.8c-0.4,0-0.8,0.3-0.8,0.8v1.6h-1.6
		c-0.4,0-0.8,0.3-0.8,0.8c0,0.4,0.3,0.8,0.8,0.8h1.6v1.7c0,0.4,0.3,0.8,0.8,0.8c0.4,0,0.8-0.3,0.8-0.8V15h1.6c0.4,0,0.8-0.3,0.8-0.8
		C28.2,13.8,27.8,13.4,27.4,13.4z"/>
</g>
</svg>
